<svg width="1792" height="1792" viewBox="0 0 1792 1792" fill="none" xmlns="http://www.w3.org/2000/svg">
<path d="M1664 896C1664 1000 1643.67 1099.33 1603 1194C1562.33 1288.67 1507.67 1370.33 1439 1439C1370.33 1507.67 1288.67 1562.33 1194 1603C1099.33 1643.67 1000 1664 896 1664C781.333 1664 672.333 1639.83 569 1591.5C465.667 1543.17 377.667 1475 305 1387C300.333 1380.33 298.167 1372.83 298.5 1364.5C298.833 1356.17 301.667 1349.33 307 1344L444 1206C450.667 1200 459 1197 469 1197C479.667 1198.33 487.333 1202.33 492 1209C540.667 1272.33 600.333 1321.33 671 1356C741.667 1390.67 816.667 1408 896 1408C965.333 1408 1031.5 1394.5 1094.5 1367.5C1157.5 1340.5 1212 1304 1258 1258C1304 1212 1340.5 1157.5 1367.5 1094.5C1394.5 1031.5 1408 965.333 1408 896C1408 826.667 1394.5 760.5 1367.5 697.5C1340.5 634.5 1304 580 1258 534C1212 488 1157.5 451.5 1094.5 424.5C1031.5 397.5 965.333 384 896 384C830.667 384 768 395.833 708 419.5C648 443.167 594.667 477 548 521L685 659C705.667 679 710.333 702 699 728C687.667 754.667 668 768 640 768H192C174.667 768 159.667 761.667 147 749C134.333 736.333 128 721.333 128 704V256C128 228 141.333 208.333 168 197C194 185.667 217 190.333 237 211L367 340C438.333 272.667 519.833 220.5 611.5 183.5C703.167 146.5 798 128 896 128C1000 128 1099.33 148.333 1194 189C1288.67 229.667 1370.33 284.333 1439 353C1507.67 421.667 1562.33 503.333 1603 598C1643.67 692.667 1664 792 1664 896Z" fill="#5F7470"/>
</svg>
